<svg width="54" height="54" viewBox="0 0 54 54" fill="none" xmlns="http://www.w3.org/2000/svg">
<path d="M13.5 26.115V40.5H27.885L24.885 37.5H16.5V29.115L13.5 26.115Z" fill="#716DA6"/>
<path d="M52.305 48.4351L48 44.0701V48.0001H6.00003V41.7751H9.00002V39.3751H6.00003V29.4001H9.00002V27.0001H6.00003V17.4001H9.00002V15.0001H6.00003V6.61506L29.91 30.3901V26.1601L5.56503 1.93506C5.35522 1.72351 5.08717 1.57924 4.79505 1.52064C4.50293 1.46203 4.19997 1.49175 3.9248 1.606C3.64964 1.72025 3.41473 1.91386 3.25003 2.16214C3.08533 2.41042 2.99829 2.70212 3.00003 3.00006V49.5001C3.00003 49.8979 3.15806 50.2794 3.43937 50.5607C3.72067 50.842 4.1022 51.0001 4.50003 51.0001H51.24C51.538 51.0018 51.8297 50.9148 52.0779 50.7501C52.3262 50.5854 52.5198 50.3504 52.6341 50.0753C52.7483 49.8001 52.778 49.4972 52.7194 49.205C52.6608 48.9129 52.5166 48.6449 52.305 48.4351Z" fill="#716DA6"/>
<path d="M36 45H42C42.7956 45 43.5587 44.6839 44.1213 44.1213C44.6839 43.5587 45 42.7957 45 42V13.05L41.55 6.705C41.2832 6.24273 40.8979 5.86002 40.4338 5.59634C39.9697 5.33267 39.4437 5.19757 38.91 5.205C38.3642 5.20933 37.83 5.36248 37.3648 5.64794C36.8996 5.9334 36.5211 6.34037 36.27 6.825L33 13.08V42C33 42.7957 33.3161 43.5587 33.8787 44.1213C34.4413 44.6839 35.2044 45 36 45ZM36 13.8L38.91 8.145L42 13.815V36H36V13.8ZM36 38.445H42V42.105H36V38.445Z" fill="#716DA6"/>
</svg>
