<svg width="66" height="66" viewBox="0 0 66 66" fill="none" xmlns="http://www.w3.org/2000/svg">
<path d="M11 16.5V44H24.75V33C24.75 31.5413 25.3295 30.1424 26.3609 29.1109C27.3924 28.0795 28.7913 27.5 30.25 27.5H44C45.4587 27.5 46.8576 28.0795 47.8891 29.1109C48.9205 30.1424 49.5 31.5413 49.5 33V44H55V16.5H11ZM0 55V49.5H11C9.54131 49.5 8.14236 48.9205 7.11091 47.8891C6.07946 46.8576 5.5 45.4587 5.5 44V16.5C5.5 15.0413 6.07946 13.6424 7.11091 12.6109C8.14236 11.5795 9.54131 11 11 11H55C56.4587 11 57.8576 11.5795 58.8891 12.6109C59.9205 13.6424 60.5 15.0413 60.5 16.5V44C60.5 45.4587 59.9205 46.8576 58.8891 47.8891C57.8576 48.9205 56.4587 49.5 55 49.5H66V55H49.5C49.5 56.4587 48.9205 57.8576 47.8891 58.8891C46.8576 59.9205 45.4587 60.5 44 60.5H30.25C28.7913 60.5 27.3924 59.9205 26.3609 58.8891C25.3295 57.8576 24.75 56.4587 24.75 55H0ZM31.625 55C31.2603 55 30.9106 55.1449 30.6527 55.4027C30.3949 55.6606 30.25 56.0103 30.25 56.375C30.25 56.7397 30.3949 57.0894 30.6527 57.3473C30.9106 57.6051 31.2603 57.75 31.625 57.75C31.9897 57.75 32.3394 57.6051 32.5973 57.3473C32.8551 57.0894 33 56.7397 33 56.375C33 56.0103 32.8551 55.6606 32.5973 55.4027C32.3394 55.1449 31.9897 55 31.625 55ZM42.625 55C42.2603 55 41.9106 55.1449 41.6527 55.4027C41.3949 55.6606 41.25 56.0103 41.25 56.375C41.25 56.7397 41.3949 57.0894 41.6527 57.3473C41.9106 57.6051 42.2603 57.75 42.625 57.75C42.9897 57.75 43.3394 57.6051 43.5973 57.3473C43.8551 57.0894 44 56.7397 44 56.375C44 56.0103 43.8551 55.6606 43.5973 55.4027C43.3394 55.1449 42.9897 55 42.625 55ZM35.75 55V57.75H38.5V55H35.75ZM30.25 33V52.25H44V33H30.25Z" fill="#716DA6"/>
</svg>
