<svg width="19" height="14" viewBox="0 0 19 14" fill="none" xmlns="http://www.w3.org/2000/svg">
<path d="M16.8889 7.06405C16.3569 6.89766 15.7911 6.8069 15.2 6.8069C13.8562 6.8069 12.5675 7.285 11.6173 8.13603C10.6671 8.98706 10.1333 10.1413 10.1333 11.3448C10.1333 11.602 10.1587 11.8516 10.2009 12.1012H1.68889C1.24097 12.1012 0.811392 11.9418 0.494664 11.6581C0.177936 11.3744 0 10.9897 0 10.5885V1.51264C0 0.673127 0.751556 0 1.68889 0H15.2C15.6479 0 16.0775 0.159367 16.3942 0.443043C16.711 0.726719 16.8889 1.11147 16.8889 1.51264V7.06405ZM19 9.83219L14.7778 13.6138L11.8222 10.9667L13.0889 9.83219L14.7778 11.3448L17.7333 8.69771L19 9.83219ZM1.68889 1.51264V3.02529L8.44444 6.8069L15.2 3.02529V1.51264L8.44444 5.29426L1.68889 1.51264Z" fill="white"/>
</svg>
