<svg width="27" height="27" viewBox="0 0 27 27" fill="none" xmlns="http://www.w3.org/2000/svg">
<path d="M6.72607e-09 9.70565L10.2735 15.0488C10.3766 15.1023 10.491 15.1303 10.6071 15.1303C10.7233 15.1303 10.8377 15.1023 10.9408 15.0488L21.2143 9.70661V18.9879C21.2143 19.7884 20.9081 20.5585 20.3583 21.1404C19.8086 21.7222 19.057 22.0717 18.2578 22.117L18.0804 22.1218H3.13393C2.33344 22.1218 1.56327 21.8156 0.981421 21.2658C0.399568 20.7161 0.0501416 19.9645 0.00482155 19.1653L6.72607e-09 18.9879V9.70565ZM3.13393 4.76465H18.0804C18.8808 4.7646 19.651 5.07086 20.2329 5.62062C20.8147 6.17037 21.1641 6.92194 21.2095 7.72115L21.2143 7.89858V8.07601L10.6071 13.5917L6.72607e-09 8.07601V7.89858C-5.24058e-05 7.09809 0.306213 6.32792 0.855969 5.74607C1.40573 5.16422 2.15729 4.81479 2.9565 4.76947L3.13393 4.76465H18.0804H3.13393Z" fill="white"/>
</svg>
