<svg width="18" height="18" viewBox="0 0 18 18" fill="none" xmlns="http://www.w3.org/2000/svg">
<path d="M8.15623 9C8.15623 9.22378 8.24512 9.43839 8.40336 9.59662C8.56159 9.75485 8.7762 9.84375 8.99998 9.84375C9.22376 9.84375 9.43837 9.75485 9.5966 9.59662C9.75483 9.43839 9.84373 9.22378 9.84373 9C9.84373 8.77622 9.75483 8.56161 9.5966 8.40338C9.43837 8.24514 9.22376 8.15625 8.99998 8.15625C8.7762 8.15625 8.56159 8.24514 8.40336 8.40338C8.24512 8.56161 8.15623 8.77622 8.15623 9V9ZM11.6719 9C11.6719 9.22378 11.7608 9.43839 11.919 9.59662C12.0772 9.75485 12.2918 9.84375 12.5156 9.84375C12.7394 9.84375 12.954 9.75485 13.1122 9.59662C13.2705 9.43839 13.3594 9.22378 13.3594 9C13.3594 8.77622 13.2705 8.56161 13.1122 8.40338C12.954 8.24514 12.7394 8.15625 12.5156 8.15625C12.2918 8.15625 12.0772 8.24514 11.919 8.40338C11.7608 8.56161 11.6719 8.77622 11.6719 9ZM4.6406 9C4.6406 9.22378 4.7295 9.43839 4.88773 9.59662C5.04597 9.75485 5.26058 9.84375 5.48435 9.84375C5.70813 9.84375 5.92274 9.75485 6.08098 9.59662C6.23921 9.43839 6.3281 9.22378 6.3281 9C6.3281 8.77622 6.23921 8.56161 6.08098 8.40338C5.92274 8.24514 5.70813 8.15625 5.48435 8.15625C5.26058 8.15625 5.04597 8.24514 4.88773 8.40338C4.7295 8.56161 4.6406 8.77622 4.6406 9V9ZM16.2633 5.94844C15.866 5.00449 15.2965 4.15723 14.5705 3.42949C13.8496 2.70597 12.9938 2.13086 12.0515 1.73672C11.0847 1.33066 10.0582 1.125 8.99998 1.125H8.96482C7.89959 1.13027 6.86775 1.34121 5.89744 1.75605C4.96326 2.15424 4.11548 2.73037 3.40135 3.45234C2.6824 4.17832 2.11814 5.02207 1.72791 5.9625C1.32361 6.93633 1.1197 7.97168 1.12498 9.03691C1.13094 10.2577 1.41975 11.4604 1.96873 12.5508V15.2227C1.96873 15.4371 2.05392 15.6428 2.20556 15.7944C2.3572 15.9461 2.56287 16.0312 2.77732 16.0312H5.45096C6.54132 16.5802 7.74407 16.869 8.96482 16.875H9.00174C10.0547 16.875 11.076 16.6711 12.0375 16.2721C12.975 15.8826 13.8276 15.3142 14.5476 14.5986C15.2736 13.8797 15.8449 13.0395 16.2439 12.1025C16.6588 11.1322 16.8697 10.1004 16.875 9.03516C16.8803 7.96465 16.6728 6.92578 16.2633 5.94844V5.94844ZM13.6072 13.6477C12.375 14.8676 10.7402 15.5391 8.99998 15.5391H8.9701C7.91014 15.5338 6.85721 15.2701 5.92732 14.7744L5.77967 14.6953H3.30467V12.2203L3.22556 12.0727C2.72986 11.1428 2.46619 10.0898 2.46092 9.02988C2.45388 7.27734 3.12361 5.63203 4.35232 4.39277C5.57928 3.15352 7.21931 2.46797 8.97185 2.46094H9.00174C9.88064 2.46094 10.7332 2.63145 11.5365 2.96895C12.3205 3.29766 13.0236 3.77051 13.6283 4.3752C14.2312 4.97812 14.7058 5.68301 15.0346 6.46699C15.3756 7.2791 15.5461 8.14043 15.5426 9.02988C15.532 10.7807 14.8447 12.4207 13.6072 13.6477V13.6477Z" fill="#FDFDFD"/>
</svg>
