<svg width="27" height="27" viewBox="0 0 27 27" fill="none" xmlns="http://www.w3.org/2000/svg">
<g clip-path="url(#clip0_624_207)">
<path d="M26.7537 0.246445C26.8705 0.363443 26.9504 0.512182 26.9834 0.674188C27.0164 0.836193 27.001 1.00432 26.9393 1.15769L17.1197 25.7058C17.0332 25.9219 16.8887 26.1101 16.7021 26.2494C16.5156 26.3888 16.2942 26.4739 16.0623 26.4956C15.8305 26.5172 15.5971 26.4745 15.388 26.372C15.1789 26.2696 15.0021 26.1115 14.8771 25.915L9.51418 17.4859L1.08512 12.1231C0.888214 11.9982 0.729646 11.8213 0.626908 11.612C0.52417 11.4026 0.481256 11.169 0.502902 10.9368C0.524548 10.7047 0.609912 10.483 0.749574 10.2963C0.889237 10.1096 1.07777 9.96505 1.29437 9.87869L25.8424 0.0625071C25.9958 0.000765315 26.1639 -0.0145567 26.3259 0.0184443C26.4879 0.0514454 26.6367 0.131315 26.7537 0.248132V0.246445ZM11.1983 16.9932L15.8575 24.3136L23.8444 4.34707L11.1983 16.9932ZM22.6514 3.15401L2.68486 11.1409L10.0069 15.7984L22.6531 3.15401H22.6514Z" fill="white"/>
</g>
<defs>
<clipPath id="clip0_624_207">
<rect width="27" height="27" fill="white"/>
</clipPath>
</defs>
</svg>
