<svg width="18" height="18" viewBox="0 0 18 18" fill="none" xmlns="http://www.w3.org/2000/svg">
<path d="M15.0463 14.0232C15.8541 13.0512 16.416 11.899 16.6843 10.664C16.9527 9.42902 16.9196 8.14756 16.5879 6.92803C16.2563 5.70851 15.6358 4.5868 14.7789 3.6578C13.9221 2.72881 12.8541 2.01985 11.6653 1.5909C10.4765 1.16196 9.20185 1.02564 7.94923 1.19349C6.69661 1.36134 5.50284 1.82842 4.4689 2.55521C3.43497 3.282 2.5913 4.24712 2.00925 5.36893C1.4272 6.49074 1.1239 7.73623 1.125 9.00005C1.12543 10.8373 1.77286 12.6157 2.95369 14.0232L2.94244 14.0327C2.98182 14.08 3.02682 14.1205 3.06732 14.1672C3.11794 14.2251 3.1725 14.2797 3.22482 14.3359C3.38232 14.5069 3.54432 14.6712 3.71419 14.8253C3.76594 14.8725 3.81938 14.9164 3.87169 14.9614C4.05169 15.1167 4.23675 15.264 4.42857 15.4013C4.45332 15.4182 4.47582 15.4401 4.50057 15.4575V15.4508C5.818 16.3779 7.38962 16.8755 9.00056 16.8755C10.6115 16.8755 12.1831 16.3779 13.5006 15.4508V15.4575C13.5253 15.4401 13.5473 15.4182 13.5726 15.4013C13.7638 15.2635 13.9494 15.1167 14.1294 14.9614C14.1818 14.9164 14.2352 14.872 14.2869 14.8253C14.4568 14.6706 14.6188 14.5069 14.7763 14.3359C14.8286 14.2797 14.8826 14.2251 14.9338 14.1672C14.9738 14.1205 15.0193 14.08 15.0587 14.0322L15.0463 14.0232ZM9 4.50005C9.50064 4.50005 9.99003 4.6485 10.4063 4.92664C10.8226 5.20478 11.147 5.60011 11.3386 6.06263C11.5302 6.52516 11.5803 7.03411 11.4826 7.52512C11.3849 8.01614 11.1439 8.46716 10.7899 8.82116C10.4359 9.17516 9.98484 9.41624 9.49382 9.51391C9.00281 9.61158 8.49386 9.56145 8.03133 9.36987C7.56881 9.17828 7.17348 8.85385 6.89535 8.43759C6.61721 8.02132 6.46875 7.53193 6.46875 7.0313C6.46875 6.35997 6.73544 5.71614 7.21014 5.24143C7.68484 4.76673 8.32867 4.50005 9 4.50005ZM4.50394 14.0232C4.5137 13.2846 4.81385 12.5795 5.33945 12.0606C5.86506 11.5416 6.57386 11.2504 7.3125 11.25H10.6875C11.4261 11.2504 12.1349 11.5416 12.6606 12.0606C13.1862 12.5795 13.4863 13.2846 13.4961 14.0232C12.2624 15.1349 10.6606 15.7501 9 15.7501C7.33936 15.7501 5.73759 15.1349 4.50394 14.0232Z" fill="white"/>
</svg>
