<svg width="27" height="27" viewBox="0 0 27 27" fill="none" xmlns="http://www.w3.org/2000/svg">
<path d="M13.5 2.25C12.3875 2.25 11.2999 2.5799 10.3749 3.19798C9.44989 3.81607 8.72892 4.69457 8.30318 5.72241C7.87743 6.75024 7.76604 7.88124 7.98308 8.97238C8.20012 10.0635 8.73585 11.0658 9.52252 11.8525C10.3092 12.6391 11.3115 13.1749 12.4026 13.3919C13.4938 13.609 14.6248 13.4976 15.6526 13.0718C16.6804 12.6461 17.5589 11.9251 18.177 11.0001C18.7951 10.0751 19.125 8.98752 19.125 7.875C19.125 6.38316 18.5324 4.95242 17.4775 3.89752C16.4226 2.84263 14.9918 2.25 13.5 2.25ZM13.5 11.25C12.8325 11.25 12.18 11.0521 11.625 10.6812C11.0699 10.3104 10.6374 9.78326 10.3819 9.16656C10.1265 8.54986 10.0596 7.87126 10.1898 7.21657C10.3201 6.56188 10.6415 5.96052 11.1135 5.48851C11.5855 5.01651 12.1869 4.69508 12.8416 4.56485C13.4963 4.43462 14.1749 4.50146 14.7916 4.75691C15.4083 5.01235 15.9354 5.44493 16.3062 5.99995C16.6771 6.55497 16.875 7.20749 16.875 7.875C16.875 8.77011 16.5194 9.62855 15.8865 10.2615C15.2536 10.8944 14.3951 11.25 13.5 11.25ZM23.625 23.625V22.5C23.625 20.4114 22.7953 18.4084 21.3185 16.9315C19.8416 15.4547 17.8386 14.625 15.75 14.625H11.25C9.16142 14.625 7.15838 15.4547 5.68153 16.9315C4.20469 18.4084 3.375 20.4114 3.375 22.5V23.625H5.625V22.5C5.625 21.0082 6.21763 19.5774 7.27252 18.5225C8.32742 17.4676 9.75816 16.875 11.25 16.875H15.75C17.2418 16.875 18.6726 17.4676 19.7275 18.5225C20.7824 19.5774 21.375 21.0082 21.375 22.5V23.625H23.625Z" fill="white"/>
</svg>
