<svg width="72" height="72" viewBox="0 0 72 72" fill="none" xmlns="http://www.w3.org/2000/svg">
<path d="M36 1.125C16.7766 1.125 1.125 16.7625 1.125 36C1.125 55.2234 16.7766 70.875 36 70.875C55.2234 70.875 70.875 55.2234 70.875 36C70.875 16.7625 55.2234 1.125 36 1.125ZM4.64062 36C4.64062 31.4578 5.61094 27.1406 7.35469 23.2453L22.3172 64.2234C11.8547 59.1328 4.64062 48.4031 4.64062 36ZM36 67.3594C32.9203 67.3594 29.9531 66.9094 27.1406 66.0797L36.5484 38.7422L46.1812 65.1516C46.2516 65.3063 46.3219 65.4469 46.4062 65.5875C43.1578 66.7266 39.6562 67.3594 36 67.3594ZM40.3172 21.3047C42.2016 21.2062 43.9031 21.0094 43.9031 21.0094C45.5906 20.8125 45.3937 18.3234 43.7062 18.4219C43.7062 18.4219 38.6297 18.8156 35.3531 18.8156C32.2734 18.8156 27.0984 18.4219 27.0984 18.4219C25.4109 18.3234 25.2141 20.9109 26.9016 21.0094C26.9016 21.0094 28.5047 21.2062 30.1922 21.3047L35.0719 34.6922L28.2094 55.2656L16.7906 21.3047C18.675 21.2062 20.3766 21.0094 20.3766 21.0094C22.0641 20.8125 21.8672 18.3234 20.1797 18.4219C20.1797 18.4219 15.1031 18.8156 11.8266 18.8156C11.2359 18.8156 10.5469 18.8016 9.80156 18.7734C15.4125 10.2656 25.0453 4.64062 36 4.64062C44.1562 4.64062 51.5953 7.7625 57.1781 12.8672C57.0375 12.8531 56.9109 12.8391 56.7703 12.8391C53.6906 12.8391 51.5109 15.525 51.5109 18.4078C51.5109 20.9953 53.0016 23.175 54.5906 25.7625C55.7859 27.8438 57.1781 30.5297 57.1781 34.4109C57.1781 37.0969 56.1516 40.2047 54.7875 44.55L51.6656 54.9984L40.3172 21.3047ZM51.7641 63.0984L61.3406 35.4094C63.1266 30.9375 63.7313 27.3656 63.7313 24.1734C63.7313 23.0203 63.6609 21.9516 63.5203 20.9531C65.9672 25.425 67.3594 30.5438 67.3594 36C67.3594 47.5734 61.0875 57.6703 51.7641 63.0984Z" fill="#716DA6"/>
</svg>
