<svg width="27" height="26" viewBox="0 0 27 26" fill="none" xmlns="http://www.w3.org/2000/svg">
<path fill-rule="evenodd" clip-rule="evenodd" d="M13.4029 0.81665C6.05741 0.81665 0.10791 6.53538 0.10791 13.5959C0.10791 19.2508 3.91359 24.027 9.19834 25.7203C9.86309 25.8321 10.1124 25.4487 10.1124 25.1133C10.1124 24.8098 10.0958 23.8034 10.0958 22.7331C6.75539 23.3242 5.89122 21.9504 5.62532 21.2316C5.47575 20.8642 4.82762 19.73 4.26259 19.4265C3.79726 19.1869 3.13251 18.5958 4.24597 18.5799C5.29295 18.5639 6.04079 19.5064 6.29007 19.8897C7.48661 21.8226 9.39777 21.2795 10.1622 20.944C10.2786 20.1134 10.6276 19.5543 11.0098 19.2348C8.05165 18.9153 4.96057 17.8131 4.96057 12.925C4.96057 11.5353 5.47575 10.3851 6.32331 9.49059C6.19036 9.17111 5.72503 7.86123 6.45625 6.10408C6.45625 6.10408 7.56971 5.76863 10.1124 7.41396C11.176 7.12643 12.306 6.98266 13.4361 6.98266C14.5662 6.98266 15.6963 7.12643 16.7599 7.41396C19.3025 5.75265 20.416 6.10408 20.416 6.10408C21.1472 7.86123 20.6819 9.17111 20.5489 9.49059C21.3965 10.3851 21.9116 11.5193 21.9116 12.925C21.9116 17.8291 18.804 18.9153 15.8458 19.2348C16.3278 19.6342 16.7432 20.4009 16.7432 21.599C16.7432 23.3082 16.7266 24.682 16.7266 25.1133C16.7266 25.4487 16.9759 25.8481 17.6406 25.7203C20.2799 24.8638 22.5733 23.2333 24.198 21.0584C25.8228 18.8834 26.697 16.2735 26.6978 13.5959C26.6978 6.53538 20.7483 0.81665 13.4029 0.81665Z" fill="white"/>
</svg>
