<svg width="28" height="26" viewBox="0 0 28 26" fill="none" xmlns="http://www.w3.org/2000/svg">
<path fill-rule="evenodd" clip-rule="evenodd" d="M0.546753 2.89928C0.546753 2.34693 0.7808 1.81721 1.19741 1.42664C1.61401 1.03607 2.17905 0.816653 2.76822 0.816653H24.9128C25.2048 0.816206 25.494 0.869753 25.7638 0.974229C26.0337 1.0787 26.279 1.23206 26.4855 1.42551C26.6921 1.61895 26.8559 1.8487 26.9677 2.10159C27.0794 2.35448 27.1368 2.62555 27.1367 2.89928V23.6598C27.137 23.9336 27.0797 24.2047 26.9682 24.4578C26.8566 24.7108 26.6929 24.9407 26.4865 25.1343C26.28 25.328 26.0349 25.4815 25.765 25.5863C25.4952 25.691 25.206 25.7449 24.914 25.7447H2.76822C2.47639 25.7447 2.18742 25.6908 1.91782 25.5861C1.64822 25.4813 1.40328 25.3278 1.19698 25.1343C0.99068 24.9408 0.827074 24.7111 0.715505 24.4583C0.603937 24.2055 0.546594 23.9345 0.546753 23.6609V2.89928ZM11.0715 10.321H14.672V12.0161C15.1918 11.0417 16.5213 10.1647 18.5191 10.1647C22.3493 10.1647 23.257 12.1057 23.257 15.667V22.2638H19.3809V16.4783C19.3809 14.45 18.8612 13.3056 17.5413 13.3056C15.7103 13.3056 14.9488 14.5395 14.9488 16.4783V22.2638H11.0715V10.321ZM4.42405 22.1086H8.30134V10.1647H4.42405V22.1075V22.1086ZM8.8561 6.2691C8.86342 6.58033 8.80434 6.88979 8.68235 7.17933C8.56036 7.46886 8.37791 7.73264 8.14571 7.95518C7.91351 8.17771 7.63623 8.35453 7.33015 8.47524C7.02407 8.59595 6.69536 8.65813 6.3633 8.65813C6.03124 8.65813 5.70253 8.59595 5.39645 8.47524C5.09037 8.35453 4.81309 8.17771 4.58089 7.95518C4.34869 7.73264 4.16624 7.46886 4.04425 7.17933C3.92226 6.88979 3.86318 6.58033 3.87049 6.2691C3.88484 5.6582 4.15378 5.07685 4.61971 4.64955C5.08564 4.22226 5.71151 3.98299 6.3633 3.98299C7.01509 3.98299 7.64096 4.22226 8.10689 4.64955C8.57282 5.07685 8.84176 5.6582 8.8561 6.2691Z" fill="white"/>
</svg>
