<svg width="28" height="28" viewBox="0 0 28 28" fill="none" xmlns="http://www.w3.org/2000/svg">
<path d="M6.22397 0.985596C4.15955 0.985596 2.30738 2.25436 1.56162 4.17937L1.32324 4.79468C1.10008 5.37073 0.985596 5.98315 0.985596 6.60091V21.0636C0.985596 22.8988 2.47329 24.3865 4.30845 24.3865H5.87522C6.84508 24.3865 7.63131 25.1727 7.63131 26.1426C7.63131 27.1125 8.41754 27.8987 9.38741 27.8987H10.2136C10.8844 27.8987 11.5289 27.6377 12.0106 27.1709L13.4299 25.7956C14.3627 24.8919 15.6105 24.3865 16.9093 24.3865H18.2997C19.5973 24.3865 20.844 23.8821 21.7765 22.9798L26.0524 18.8425C27.0259 17.9005 27.5755 16.6038 27.5755 15.2492V5.98559C27.5755 3.22417 25.3369 0.985596 22.5755 0.985596H6.22397ZM5.21474 8.3244C5.21474 5.56298 7.45332 3.32441 10.2147 3.32441H20.1585C22.92 3.32441 25.1585 5.56299 25.1585 8.32441V14.0773C25.1585 15.4316 24.6092 16.728 23.6361 17.6699L22.3811 18.8847C21.4485 19.7875 20.2014 20.2922 18.9035 20.2922H15.0189C14.5453 20.2922 14.0903 20.4763 13.7501 20.8057L12.427 22.0864C11.7646 22.7275 10.657 22.2581 10.657 21.3362C10.657 20.7597 10.1896 20.2923 9.613 20.2923H7.93585C6.43302 20.2923 5.21474 19.074 5.21474 17.5712V8.3244ZM11.8631 13.8188C11.8631 14.4863 12.4042 15.0275 13.0718 15.0275C13.7394 15.0275 14.2806 14.4863 14.2806 13.8188V9.21632C14.2806 8.54874 13.7394 8.00756 13.0718 8.00756C12.4042 8.00756 11.8631 8.54874 11.8631 9.21632V13.8188ZM18.5102 13.819C18.5102 14.4865 19.0513 15.0275 19.7187 15.0275C20.3862 15.0275 20.9272 14.4865 20.9272 13.819V9.21606C20.9272 8.54862 20.3862 8.00756 19.7187 8.00756C19.0513 8.00756 18.5102 8.54862 18.5102 9.21606V13.819Z" fill="white"/>
</svg>
