<svg width="29" height="20" viewBox="0 0 29 20" fill="none" xmlns="http://www.w3.org/2000/svg">
<path d="M27.6867 3.12579C27.5306 2.5477 27.2246 2.0205 26.7992 1.59698C26.3738 1.17346 25.8441 0.86846 25.2629 0.712509C23.1237 0.140381 14.5486 0.140381 14.5486 0.140381C14.5486 0.140381 5.97343 0.140381 3.83423 0.709466C3.25282 0.864911 2.72278 1.16974 2.29733 1.59334C1.87189 2.01694 1.56601 2.5444 1.41042 3.12275C0.838135 5.25301 0.838135 9.69614 0.838135 9.69614C0.838135 9.69614 0.838135 14.1393 1.41042 16.2665C1.72564 17.4412 2.65599 18.3663 3.83423 18.6798C5.97343 19.2519 14.5486 19.2519 14.5486 19.2519C14.5486 19.2519 23.1237 19.2519 25.2629 18.6798C26.4442 18.3663 27.3715 17.4412 27.6867 16.2665C28.259 14.1393 28.259 9.69614 28.259 9.69614C28.259 9.69614 28.259 5.25301 27.6867 3.12579ZM11.8248 13.7741V5.6182L18.9249 9.6657L11.8248 13.7741Z" fill="white"/>
</svg>
